Coordinates
version=1
nRows=18
nColumns=63
inDegrees=yes

Units are S.I. units (second, meters, Newtons, ...)
If the header above contains a line with 'inDegrees', this indicates whether rotational values are in degrees (yes) or radians (no).

endheader
time	pelvis_tilt	pelvis_list	pelvis_rotation	pelvis_tx	pelvis_ty	pelvis_tz	hip_flexion_r	hip_adduction_r	hip_rotation_r	knee_angle_r	knee_angle_r_beta	ankle_angle_r	subtalar_angle_r	mtp_angle_r	hip_flexion_l	hip_adduction_l	hip_rotation_l	knee_angle_l	knee_angle_l_beta	ankle_angle_l	subtalar_angle_l	mtp_angle_l	L5_S1_Flex_Ext	L5_S1_Lat_Bending	L5_S1_axial_rotation	L4_L5_Flex_Ext	L4_L5_Lat_Bending	L4_L5_axial_rotation	L3_L4_Flex_Ext	L3_L4_Lat_Bending	L3_L4_axial_rotation	L2_L3_Flex_Ext	L2_L3_Lat_Bending	L2_L3_axial_rotation	L1_L2_Flex_Ext	L1_L2_Lat_Bending	L1_L2_axial_rotation	L1_T12_Flex_Ext	L1_T12_Lat_Bending	L1_T12_axial_rotation	Abs_r3	Abs_r2	Abs_r1	Abs_t1	Abs_t2	neck_flexion	neck_bending	neck_rotation	arm_flex_r	arm_add_r	arm_rot_r	elbow_flex_r	pro_sup_r	wrist_flex_r	wrist_dev_r	arm_flex_l	arm_add_l	arm_rot_l	elbow_flex_l	pro_sup_l	wrist_flex_l	wrist_dev_l
3.627119	0.335035	-7.426798	99.665950	0.272558	0.769452	0.823231	-2.767351	1.924564	-0.384392	0.979964	0.017104	17.897254	-0.195922	0.000000	-1.570260	-0.798928	8.163288	1.887050	0.032935	18.986004	-9.621339	0.000000	0.081030	0.091270	-0.565753	0.150482	0.121389	-0.601112	0.133125	0.221914	-0.601112	0.092610	0.221914	-0.495034	0.075245	0.186118	-0.459674	0.046301	0.141377	-0.424315	0.578792	1.032463	-3.146547	0.000000	0.000000	28.096660	0.325998	4.081432	11.116596	-5.897690	154.481674	8.881002	3.962047	6.319059	-10.122528	-1.416465	-13.536650	48.735174	26.514096	85.909958	-8.453486	5.686091
3.644068	0.292093	-7.377898	99.689091	0.272700	0.769753	0.823380	-2.815905	1.887314	-0.604782	0.988022	0.017244	17.786700	0.091387	0.000000	-1.594839	-0.777343	7.987766	1.922606	0.033556	19.035414	-9.312782	0.000000	0.073163	0.086408	-0.497408	0.135871	0.114923	-0.528496	0.120200	0.210092	-0.528496	0.083618	0.210092	-0.435232	0.067939	0.176203	-0.404144	0.041805	0.133846	-0.373056	0.522597	0.977465	-2.766434	0.000000	0.000000	28.072225	0.165362	3.881871	10.937668	-5.919759	154.115478	8.732086	3.871567	6.411511	-10.135466	-0.969841	-13.529923	50.068350	26.184848	85.891813	-8.319001	5.660625
3.661017	0.251869	-7.316728	99.719228	0.272825	0.770070	0.823551	-2.870493	1.850959	-1.037613	1.015994	0.017732	17.695263	0.622003	0.000000	-1.623134	-0.763051	7.665571	1.974161	0.034456	19.123412	-8.786294	0.000000	0.064646	0.082520	-0.422541	0.120055	0.109751	-0.448949	0.106207	0.200639	-0.448949	0.073884	0.200639	-0.369723	0.060031	0.168275	-0.343314	0.036939	0.127823	-0.316906	0.461762	0.933482	-2.350044	0.000000	0.000000	28.039278	-0.045241	3.627862	10.756375	-5.981256	153.300519	8.663355	3.943259	6.495091	-10.098246	-0.456029	-13.535953	51.688026	25.828951	85.744555	-8.202046	5.599106
3.677966	0.223242	-7.249400	99.749941	0.272935	0.770358	0.823706	-2.936223	1.829709	-1.357328	1.037613	0.018110	17.545160	0.947251	0.000000	-1.666469	-0.756023	7.570925	2.005273	0.034999	19.096112	-8.622025	0.000000	0.057125	0.080437	-0.350444	0.106087	0.106982	-0.372346	0.093851	0.195576	-0.372346	0.065288	0.195576	-0.306638	0.053047	0.164028	-0.284735	0.032641	0.124598	-0.262833	0.408040	0.909925	-1.949062	0.000000	0.000000	28.000236	-0.276155	3.354312	10.574352	-6.037898	152.647305	8.579553	3.936801	6.574624	-10.077389	0.008891	-13.535844	53.144036	25.521365	85.703724	-8.023630	5.601675
3.694915	0.203926	-7.169081	99.774041	0.273032	0.770629	0.823884	-3.015189	1.819962	-1.637806	1.057618	0.018459	17.385694	1.188620	0.000000	-1.724645	-0.756804	7.553906	2.030261	0.035435	19.013954	-8.605450	0.000000	0.048936	0.080156	-0.284097	0.090880	0.106608	-0.301853	0.080398	0.194892	-0.301853	0.055929	0.194892	-0.248585	0.045442	0.163455	-0.230829	0.027962	0.124162	-0.213073	0.349548	0.906746	-1.580064	0.000000	0.000000	27.953328	-0.533937	3.055959	10.421508	-6.099806	152.020501	8.533189	3.908176	6.642433	-10.053735	0.456675	-13.539210	54.605967	25.239630	85.635475	-7.841507	5.618966
3.711864	0.193149	-7.077914	99.805941	0.273106	0.770871	0.824102	-3.104511	1.822215	-1.879442	1.074934	0.018761	17.229527	1.332253	0.000000	-1.792377	-0.763577	7.662542	2.049453	0.035770	18.868158	-8.785677	0.000000	0.040324	0.081510	-0.233792	0.074887	0.108408	-0.248404	0.066249	0.198183	-0.248404	0.046087	0.198183	-0.204568	0.037445	0.166215	-0.189956	0.023041	0.126259	-0.175344	0.288033	0.922055	-1.300281	0.000000	0.000000	27.898718	-0.798698	2.762476	10.319089	-6.160393	151.456457	8.538134	3.877435	6.691968	-10.040948	0.834946	-13.545330	55.866181	25.020224	85.623247	-7.648686	5.684280
3.728814	0.192159	-6.974349	99.819921	0.273186	0.771093	0.824400	-3.196499	1.833779	-2.128745	1.100090	0.019200	17.103851	1.487370	0.000000	-1.865492	-0.778497	7.741330	2.075875	0.036231	18.720286	-8.971111	0.000000	0.030198	0.084723	-0.195280	0.056080	0.112682	-0.207486	0.049612	0.205996	-0.207486	0.034513	0.205996	-0.170870	0.028042	0.172768	-0.158665	0.017255	0.131236	-0.146460	0.215700	0.958407	-1.086092	0.000000	0.000000	27.841337	-1.077202	2.459141	10.275954	-6.244468	150.733619	8.643532	3.949593	6.687964	-10.011532	1.182753	-13.550194	57.082596	24.829908	85.547708	-7.487219	5.744706
3.745763	0.197990	-6.868044	99.838361	0.273248	0.771271	0.824770	-3.282515	1.851439	-2.446105	1.136656	0.019838	17.022077	1.711658	0.000000	-1.937177	-0.796023	7.923211	2.099817	0.036649	18.542568	-9.310964	0.000000	0.019653	0.088932	-0.177259	0.036497	0.118279	-0.188338	0.032288	0.216228	-0.188338	0.022461	0.216228	-0.155102	0.018250	0.181349	-0.144023	0.011230	0.137755	-0.132944	0.140379	1.006012	-0.985863	0.000000	0.000000	27.784385	-1.336901	2.180265	10.301798	-6.316151	150.204487	8.800357	3.962038	6.650039	-10.011907	1.418758	-13.547467	57.878228	24.726403	85.563278	-7.311389	5.860190
3.762712	0.205848	-6.765317	99.817519	0.273348	0.771405	0.825215	-3.352452	1.867922	-2.710181	1.186126	0.020702	16.957339	1.898060	0.000000	-1.998909	-0.812872	7.991515	2.135596	0.037273	18.412257	-9.547242	0.000000	0.008898	0.093587	-0.165892	0.016524	0.124471	-0.176261	0.014618	0.227548	-0.176261	0.010169	0.227548	-0.145156	0.008262	0.190843	-0.134787	0.005084	0.144967	-0.124419	0.063556	1.058680	-0.922643	0.000000	0.000000	27.729350	-1.585260	1.919044	10.380503	-6.422158	149.377256	9.075393	4.192952	6.530635	-9.980249	1.613530	-13.540680	58.547948	24.648575	85.471896	-7.178897	5.939548
3.779661	0.210006	-6.677470	99.770865	0.273474	0.771483	0.825707	-3.395847	1.875042	-2.987243	1.253123	0.021871	16.922053	2.131742	0.000000	-2.044045	-0.820447	8.071621	2.174554	0.037953	18.294720	-9.831749	0.000000	-0.000593	0.097490	-0.162696	-0.001102	0.129662	-0.172865	-0.000975	0.237037	-0.172865	-0.000678	0.237037	-0.142359	-0.000551	0.198802	-0.132191	-0.000339	0.151012	-0.122022	-0.004238	1.102828	-0.904867	0.000000	0.000000	27.679713	-1.794157	1.690924	10.498499	-6.533986	148.511033	9.409558	4.488927	6.353451	-9.949213	1.727186	-13.525372	58.880908	24.614683	85.371519	-7.064001	6.004093
3.796610	0.210366	-6.610722	99.687984	0.273639	0.771501	0.826207	-3.409669	1.873500	-3.241852	1.332299	0.023253	16.915117	2.398262	0.000000	-2.073195	-0.816872	8.199029	2.206998	0.038519	18.181852	-10.224663	0.000000	-0.008124	0.100421	-0.162938	-0.015088	0.133561	-0.173121	-0.013347	0.244165	-0.173121	-0.009285	0.244165	-0.142571	-0.007544	0.204779	-0.132387	-0.004642	0.155553	-0.122203	-0.058031	1.135988	-0.906211	0.000000	0.000000	27.637750	-1.958483	1.504061	10.643116	-6.624731	147.887623	9.739776	4.686435	6.153352	-9.952191	1.734869	-13.493669	58.735471	24.637744	85.362971	-6.932352	6.076336
3.813559	0.203357	-6.563891	99.556303	0.273861	0.771479	0.826701	-3.387446	1.855604	-3.562334	1.438811	0.025112	16.966044	2.857823	0.000000	-2.083973	-0.803831	8.146903	2.247031	0.039218	18.166827	-10.393509	0.000000	-0.014091	0.102077	-0.161310	-0.026169	0.135762	-0.171391	-0.023151	0.248190	-0.171391	-0.016105	0.248190	-0.141146	-0.013085	0.208156	-0.131064	-0.008052	0.158117	-0.120982	-0.100653	1.154716	-0.897155	0.000000	0.000000	27.605174	-2.086148	1.360105	10.803173	-6.715798	147.267378	10.085288	4.962553	5.926494	-9.967912	1.687770	-13.457052	58.374399	24.678430	85.260396	-6.843856	6.096824
3.830508	0.187452	-6.539391	99.363426	0.274167	0.771428	0.827165	-3.330236	1.820643	-3.955806	1.560948	0.027244	17.089762	3.568572	0.000000	-2.074651	-0.779910	7.856925	2.299457	0.040133	18.261484	-10.278855	0.000000	-0.017960	0.102287	-0.154478	-0.033353	0.136042	-0.164133	-0.029506	0.248700	-0.164133	-0.020526	0.248700	-0.135168	-0.016678	0.208584	-0.125514	-0.010262	0.158442	-0.115859	-0.128285	1.157090	-0.859161	0.000000	0.000000	27.582733	-2.175646	1.270505	10.977998	-6.823917	146.364276	10.493933	5.419381	5.654289	-9.946385	1.587465	-13.411171	57.791844	24.723137	85.151631	-6.781944	6.078075
3.847458	0.162963	-6.539467	99.127963	0.274535	0.771339	0.827545	-3.255008	1.776984	-4.061015	1.661218	0.028994	17.182792	3.995209	0.000000	-2.062428	-0.740484	7.716253	2.323672	0.040556	18.318542	-10.416962	0.000000	-0.018655	0.100679	-0.147411	-0.034644	0.133903	-0.156624	-0.030648	0.244790	-0.156624	-0.021321	0.244790	-0.128984	-0.017323	0.205304	-0.119771	-0.010659	0.155951	-0.110558	-0.133250	1.138899	-0.819855	0.000000	0.000000	27.568343	-2.218112	1.227819	11.152224	-6.905142	145.733862	10.861614	5.804028	5.391140	-9.967126	1.401621	-13.365301	56.903138	24.811378	85.087224	-6.715472	6.073622
3.864407	0.125940	-6.555626	98.833965	0.274993	0.771242	0.827844	-3.168424	1.719391	-3.930710	1.740543	0.030378	17.261218	4.234260	0.000000	-2.052182	-0.685561	7.554376	2.333309	0.040724	18.385167	-10.584671	0.000000	-0.017349	0.097037	-0.134541	-0.032218	0.129060	-0.142950	-0.028502	0.235937	-0.142950	-0.019828	0.235937	-0.117723	-0.016110	0.197879	-0.109314	-0.009913	0.150311	-0.100906	-0.123920	1.097706	-0.748276	0.000000	0.000000	27.559248	-2.232117	1.213458	11.322256	-6.966124	145.258625	11.200088	6.126838	5.155677	-10.001962	1.174771	-13.326716	55.904657	24.920279	85.005931	-6.665152	6.075509
3.881356	0.078072	-6.583190	98.511420	0.275505	0.771160	0.828063	-3.080777	1.652251	-3.570400	1.791174	0.031262	17.309700	4.236471	0.000000	-2.041271	-0.621797	7.286117	2.337367	0.040795	18.489036	-10.611576	0.000000	-0.014202	0.091455	-0.118292	-0.026374	0.121635	-0.125685	-0.023332	0.222364	-0.125685	-0.016231	0.222364	-0.103505	-0.013188	0.186495	-0.096112	-0.008115	0.141664	-0.088719	-0.101440	1.034558	-0.657902	0.000000	0.000000	27.551980	-2.228629	1.204269	11.479602	-6.999668	144.931726	11.496037	6.333317	4.971868	-10.022658	0.916034	-13.293310	54.810425	25.050729	84.959321	-6.616295	6.110839
3.898305	0.018813	-6.610229	98.134465	0.276110	0.771122	0.828228	-2.991905	1.572035	-3.156656	1.834689	0.032021	17.385031	4.283627	0.000000	-2.036087	-0.551997	6.774915	2.350446	0.041023	18.665938	-10.336318	0.000000	-0.010884	0.084126	-0.084953	-0.020212	0.111888	-0.090263	-0.017881	0.204544	-0.090263	-0.012439	0.204544	-0.074334	-0.010107	0.171550	-0.069024	-0.006219	0.130311	-0.063715	-0.077742	0.951650	-0.472484	0.000000	0.000000	27.539934	-2.254190	1.129231	11.618917	-7.055658	144.230172	11.839020	6.715185	4.760259	-9.991326	0.697521	-13.265084	53.851300	25.162601	84.872037	-6.537671	6.156703
3.915254	-0.047743	-6.629883	97.740560	0.276752	0.771122	0.828316	-2.925490	1.490535	-2.468795	1.844829	0.032198	17.391573	3.983324	0.000000	-2.060990	-0.474535	6.441837	2.327652	0.040625	18.745691	-10.332914	0.000000	-0.007938	0.075532	-0.041919	-0.014742	0.100458	-0.044539	-0.013042	0.183649	-0.044539	-0.009073	0.183649	-0.036679	-0.007372	0.154025	-0.034059	-0.004536	0.116999	-0.031439	-0.056703	0.854436	-0.233140	0.000000	0.000000	27.519481	-2.277737	1.026101	11.722267	-7.078610	143.851966	12.073284	6.971064	4.604579	-9.987152	0.464541	-13.239754	52.794291	25.304377	84.835477	-6.422957	6.273419
